<mxfile host="Electron" modified="2023-10-04T12:53:08.339Z" agent="Mozilla/5.0 (Windows NT 10.0; Win64; x64) AppleWebKit/537.36 (KHTML, like Gecko) draw.io/21.7.5 Chrome/114.0.5735.289 Electron/25.8.1 Safari/537.36" etag="hEIWymDAAV069-G2OR7L" version="21.7.5" type="device">
  <diagram name="Página-1" id="rX1YzB346VphcjRjnug3">
    <mxGraphModel dx="780" dy="544" grid="1" gridSize="10" guides="1" tooltips="1" connect="1" arrows="1" fold="1" page="1" pageScale="1" pageWidth="827" pageHeight="1169" math="0" shadow="0">
      <root>
        <mxCell id="0" />
        <mxCell id="1" parent="0" />
        <mxCell id="3qOpGYFH5oxsdP-UGP8--1" value="&lt;font style=&quot;font-size: 18px;&quot;&gt;CAPÇALERA&lt;br&gt;REBUT&lt;/font&gt;" style="rounded=0;whiteSpace=wrap;html=1;" parent="1" vertex="1">
          <mxGeometry x="50" y="130" width="150" height="80" as="geometry" />
        </mxCell>
        <mxCell id="3qOpGYFH5oxsdP-UGP8--2" value="&lt;u&gt;num&lt;/u&gt;" style="ellipse;whiteSpace=wrap;html=1;" parent="1" vertex="1">
          <mxGeometry x="30" y="250" width="70" height="50" as="geometry" />
        </mxCell>
        <mxCell id="3qOpGYFH5oxsdP-UGP8--3" value="" style="endArrow=none;html=1;rounded=0;entryX=0.394;entryY=0.998;entryDx=0;entryDy=0;entryPerimeter=0;exitX=0.714;exitY=0.069;exitDx=0;exitDy=0;exitPerimeter=0;" parent="1" source="3qOpGYFH5oxsdP-UGP8--2" target="3qOpGYFH5oxsdP-UGP8--1" edge="1">
          <mxGeometry width="50" height="50" relative="1" as="geometry">
            <mxPoint x="370" y="250" as="sourcePoint" />
            <mxPoint x="420" y="200" as="targetPoint" />
          </mxGeometry>
        </mxCell>
        <mxCell id="3qOpGYFH5oxsdP-UGP8--4" value="data i hora" style="ellipse;whiteSpace=wrap;html=1;" parent="1" vertex="1">
          <mxGeometry x="120" y="250" width="70" height="50" as="geometry" />
        </mxCell>
        <mxCell id="3qOpGYFH5oxsdP-UGP8--5" value="" style="endArrow=none;html=1;rounded=0;exitX=0.377;exitY=0.015;exitDx=0;exitDy=0;exitPerimeter=0;" parent="1" source="3qOpGYFH5oxsdP-UGP8--4" target="3qOpGYFH5oxsdP-UGP8--1" edge="1">
          <mxGeometry width="50" height="50" relative="1" as="geometry">
            <mxPoint x="450" y="250" as="sourcePoint" />
            <mxPoint x="189" y="210" as="targetPoint" />
          </mxGeometry>
        </mxCell>
        <mxCell id="3qOpGYFH5oxsdP-UGP8--7" value="PEL·LÍCULA" style="rounded=0;whiteSpace=wrap;html=1;shadow=0;glass=0;" parent="1" vertex="1">
          <mxGeometry x="340" y="130" width="150" height="80" as="geometry" />
        </mxCell>
        <mxCell id="3qOpGYFH5oxsdP-UGP8--8" value="&lt;u&gt;num&lt;/u&gt;" style="ellipse;whiteSpace=wrap;html=1;" parent="1" vertex="1">
          <mxGeometry x="270" y="250" width="70" height="50" as="geometry" />
        </mxCell>
        <mxCell id="3qOpGYFH5oxsdP-UGP8--9" value="" style="endArrow=none;html=1;rounded=0;entryX=0.113;entryY=1.013;entryDx=0;entryDy=0;entryPerimeter=0;exitX=0.714;exitY=0.069;exitDx=0;exitDy=0;exitPerimeter=0;" parent="1" source="3qOpGYFH5oxsdP-UGP8--8" target="3qOpGYFH5oxsdP-UGP8--7" edge="1">
          <mxGeometry width="50" height="50" relative="1" as="geometry">
            <mxPoint x="660" y="250" as="sourcePoint" />
            <mxPoint x="710" y="200" as="targetPoint" />
          </mxGeometry>
        </mxCell>
        <mxCell id="8f0ef6LYHRjr9DAGwmMu-1" value="descripció" style="ellipse;whiteSpace=wrap;html=1;" parent="1" vertex="1">
          <mxGeometry x="350" y="250" width="70" height="50" as="geometry" />
        </mxCell>
        <mxCell id="8f0ef6LYHRjr9DAGwmMu-2" value="" style="endArrow=none;html=1;rounded=0;entryX=0.413;entryY=1.013;entryDx=0;entryDy=0;entryPerimeter=0;exitX=0.714;exitY=0.069;exitDx=0;exitDy=0;exitPerimeter=0;" parent="1" source="8f0ef6LYHRjr9DAGwmMu-1" target="3qOpGYFH5oxsdP-UGP8--7" edge="1">
          <mxGeometry width="50" height="50" relative="1" as="geometry">
            <mxPoint x="690" y="250" as="sourcePoint" />
            <mxPoint x="429" y="210" as="targetPoint" />
          </mxGeometry>
        </mxCell>
        <mxCell id="8f0ef6LYHRjr9DAGwmMu-3" value="preu" style="ellipse;whiteSpace=wrap;html=1;" parent="1" vertex="1">
          <mxGeometry x="510" y="250" width="70" height="50" as="geometry" />
        </mxCell>
        <mxCell id="8f0ef6LYHRjr9DAGwmMu-5" value="quantitat" style="ellipse;whiteSpace=wrap;html=1;" parent="1" vertex="1">
          <mxGeometry x="430" y="250" width="70" height="50" as="geometry" />
        </mxCell>
        <mxCell id="8f0ef6LYHRjr9DAGwmMu-6" value="" style="endArrow=none;html=1;rounded=0;entryX=0.707;entryY=1.029;entryDx=0;entryDy=0;entryPerimeter=0;exitX=0.714;exitY=0.069;exitDx=0;exitDy=0;exitPerimeter=0;" parent="1" source="8f0ef6LYHRjr9DAGwmMu-5" target="3qOpGYFH5oxsdP-UGP8--7" edge="1">
          <mxGeometry width="50" height="50" relative="1" as="geometry">
            <mxPoint x="770" y="250" as="sourcePoint" />
            <mxPoint x="509" y="210" as="targetPoint" />
          </mxGeometry>
        </mxCell>
        <mxCell id="8f0ef6LYHRjr9DAGwmMu-7" value="&lt;font style=&quot;font-size: 18px;&quot;&gt;LÍNIA&lt;br&gt;REBUT&lt;/font&gt;" style="rounded=0;whiteSpace=wrap;html=1;shadow=0;glass=0;" parent="1" vertex="1">
          <mxGeometry x="350" y="140" width="130" height="60" as="geometry" />
        </mxCell>
        <mxCell id="8f0ef6LYHRjr9DAGwmMu-8" value="" style="triangle;whiteSpace=wrap;html=1;fillColor=#000000;" parent="1" vertex="1">
          <mxGeometry x="270" y="145" width="30" height="50" as="geometry" />
        </mxCell>
        <mxCell id="8f0ef6LYHRjr9DAGwmMu-9" value="" style="triangle;whiteSpace=wrap;html=1;direction=west;" parent="1" vertex="1">
          <mxGeometry x="240" y="145" width="30" height="50" as="geometry" />
        </mxCell>
        <mxCell id="8f0ef6LYHRjr9DAGwmMu-11" value="" style="endArrow=none;html=1;rounded=0;entryX=1;entryY=0.5;entryDx=0;entryDy=0;exitX=1;exitY=0.5;exitDx=0;exitDy=0;" parent="1" source="3qOpGYFH5oxsdP-UGP8--1" target="8f0ef6LYHRjr9DAGwmMu-9" edge="1">
          <mxGeometry width="50" height="50" relative="1" as="geometry">
            <mxPoint x="190" y="180" as="sourcePoint" />
            <mxPoint x="250" y="130" as="targetPoint" />
          </mxGeometry>
        </mxCell>
        <mxCell id="8f0ef6LYHRjr9DAGwmMu-13" value="" style="endArrow=none;html=1;rounded=0;entryX=0;entryY=0.5;entryDx=0;entryDy=0;exitX=1;exitY=0.5;exitDx=0;exitDy=0;" parent="1" source="8f0ef6LYHRjr9DAGwmMu-8" target="3qOpGYFH5oxsdP-UGP8--7" edge="1">
          <mxGeometry width="50" height="50" relative="1" as="geometry">
            <mxPoint x="300" y="169.5" as="sourcePoint" />
            <mxPoint x="340" y="169.5" as="targetPoint" />
          </mxGeometry>
        </mxCell>
        <mxCell id="8f0ef6LYHRjr9DAGwmMu-18" value="CONTÉ" style="text;html=1;strokeColor=none;fillColor=none;align=center;verticalAlign=middle;whiteSpace=wrap;rounded=0;" parent="1" vertex="1">
          <mxGeometry x="240" y="115" width="60" height="30" as="geometry" />
        </mxCell>
        <mxCell id="QtF_RUuRU6wrgdeBNQNb-1" value="ID" style="text;html=1;strokeColor=none;fillColor=none;align=center;verticalAlign=middle;whiteSpace=wrap;rounded=0;" parent="1" vertex="1">
          <mxGeometry x="310" y="145" width="30" height="30" as="geometry" />
        </mxCell>
        <mxCell id="H28ueGh817eNsOQWSDlH-2" value="" style="endArrow=none;html=1;rounded=0;exitX=1;exitY=1;exitDx=0;exitDy=0;" edge="1" parent="1" source="3qOpGYFH5oxsdP-UGP8--7" target="8f0ef6LYHRjr9DAGwmMu-3">
          <mxGeometry width="50" height="50" relative="1" as="geometry">
            <mxPoint x="510" y="210" as="sourcePoint" />
            <mxPoint x="560" y="160" as="targetPoint" />
          </mxGeometry>
        </mxCell>
      </root>
    </mxGraphModel>
  </diagram>
</mxfile>
